<?xml version="1.0" encoding="utf-8"?>
<!-- Generator: Adobe Illustrator 23.0.1, SVG Export Plug-In . SVG Version: 6.00 Build 0)  -->
<svg version="1.1" id="Шар_3" xmlns="http://www.w3.org/2000/svg" xmlns:xlink="http://www.w3.org/1999/xlink" x="0px" y="0px"
	 viewBox="0 0 892.913 708.661" style="enable-background:new 0 0 892.913 708.661;" xml:space="preserve">
<style type="text/css">
	.st0{fill:#E1B89A;}
	.st1{fill:#B4E5F2;}
	.st2{fill:#A0C4CE;}
	.st3{fill:#B97850;}
	.st4{fill:#8E572E;}
	.st5{fill:none;stroke:#050505;stroke-width:13;stroke-linecap:round;stroke-linejoin:round;stroke-miterlimit:10;}
	.st6{fill:none;stroke:#FFFFFF;stroke-width:14;stroke-linecap:round;stroke-miterlimit:10;}
	.st7{fill:none;stroke:#000000;stroke-width:14;stroke-linecap:round;stroke-miterlimit:10;}
	.st8{fill:#AAC4CE;}
	.st9{fill:#FF6C6C;stroke:#000000;stroke-width:6;stroke-linecap:round;stroke-linejoin:round;stroke-miterlimit:10;}
	.st10{fill:#E63950;stroke:#000000;stroke-width:6;stroke-linecap:round;stroke-linejoin:round;stroke-miterlimit:10;}
	.st11{fill:none;stroke:#000000;stroke-width:4;stroke-linecap:round;stroke-linejoin:round;stroke-miterlimit:10;}
	.st12{fill:#A0E65C;stroke:#000000;stroke-width:6;stroke-linecap:round;stroke-linejoin:round;stroke-miterlimit:10;}
	.st13{fill:#79CC52;stroke:#000000;stroke-width:6;stroke-linecap:round;stroke-linejoin:round;stroke-miterlimit:10;}
	.st14{fill:none;stroke:#E63950;stroke-width:6;stroke-linecap:round;stroke-linejoin:round;stroke-miterlimit:10;}
	.st15{fill:#79CC52;stroke:#000000;stroke-width:4;stroke-linecap:round;stroke-linejoin:round;stroke-miterlimit:10;}
	.st16{fill:#FFFFFF;}
	.st17{display:none;}
	.st18{display:inline;}
	.st19{fill:#BAD7F2;}
	.st20{fill:#DAE5F2;}
	.st21{fill:#BAC4CE;}
	.st22{fill:#A5BCCE;}
	.st23{display:inline;fill:#BCE5F2;}
	.st24{display:inline;fill:#C8E5F2;}
	.st25{display:inline;fill:#AEC4CE;}
</style>
<g>
	<path class="st0" d="M565.702,393.691c0,0-36.56,9.803-42.128,4.596c-137.872-71.234-270.383,0.766-270.383,0.766
		c-101.106-16.851-94.213-89.617-94.213-89.617c-2.298-103.404,101.106-95.745,101.106-95.745S272.837,84.245,394.684,84.164
		C515.915,84.083,528.17,213.691,528.17,213.691s93.702-6.383,101.872,86.553C630.043,300.244,639.745,347.223,565.702,393.691
		c0,0-0.01,0.06-0.031,0.177"/>
	<path class="st1" d="M567.385,393.589c0,0-35.61,9.966-41.033,4.672c-134.289-72.42-263.356,0.779-263.356,0.779
		c-98.479-17.132-91.765-91.109-91.765-91.109c-2.238-105.126,98.479-97.339,98.479-97.339s12.42-131.601,131.1-131.684
		c118.081-0.082,130.018,131.684,130.018,131.684s91.267-6.489,99.225,87.994C630.054,298.587,639.504,346.348,567.385,393.589
		c0,0-0.01,0.061-0.03,0.18"/>
	<path class="st2" d="M332.363,370.159c-58.862,5.215-83.068,31.323-83.068,31.323c-94.421-19.818-85.735-92.803-85.735-92.803
		c0.988-104.059,92.174-96.332,92.174-96.332s34.706-83.563,37.66-94.827c0,0-25.167,85.636,13.909,143.069
		C328.559,291.828,386.587,346.77,332.363,370.159z"/>
	<path class="st3" d="M562.639,392.939c-14.889,4.847-41.397,4.509-41.397,4.509c-141.757-68.746-265.7,0.753-265.7,0.753
		c-14.302-2.384-24.535-5.141-34.776-9.424l10.69,41.037l30.986,122.076c3.805,23.946,137.617,23.946,137.617,23.946
		c34.586-0.578,114.66-9.032,125.95-21.828C537.254,541.264,562.437,394.118,562.639,392.939z"/>
	<path class="st4" d="M216.023,389.826l47.087,161.535c2.377,14.163,44.128,20.092,85.494,22.689c0,0,0.861-13.873-39.752-54.331
		c-13.538-13.486-14.122-53.621-16.34-65.872C283.368,403.363,223.364,379.275,216.023,389.826z"/>
	<path class="st5" d="M228.681,429.08l31.532,124.228c3.872,24.368,140.043,24.368,140.043,24.368
		c35.196-0.588,116.681-9.191,128.17-22.213c11.489-13.021,37.277-163.915,37.277-163.915c74.043-46.468,64.34-93.447,64.34-93.447
		c-8.17-92.936-101.872-86.553-101.872-86.553S515.915,81.939,394.684,82.02c-121.847,0.081-134.598,129.528-134.598,129.528
		s-103.404-7.66-101.106,95.745c0,0-6.894,72.766,94.213,89.617c0,0,132.511-72,270.383-0.766"/>
	<path class="st6" d="M414.298,131.378c0,0-20.936-7.404-45.191,0"/>
	<path class="st6" d="M450.041,145.674c-3.862-1.822,41.579,21.482,39.587,69.447"/>
	<line class="st7" x1="394.67" y1="426.527" x2="394.67" y2="528.91"/>
	<line class="st7" x1="474.732" y1="426.527" x2="445.269" y2="528.91"/>
</g>
<g>
	<g>
		<path class="st0" d="M667.651,442.656c0,0-36.56,9.803-42.128,4.596c-137.872-71.234-270.383,0.766-270.383,0.766
			c-101.106-16.851-94.213-89.617-94.213-89.617c-2.298-103.404,101.106-95.745,101.106-95.745s12.751-129.446,134.598-129.528
			c121.231-0.081,133.487,129.528,133.487,129.528s93.702-6.383,101.872,86.553C731.991,349.21,741.693,396.188,667.651,442.656
			c0,0-0.01,0.06-0.031,0.177"/>
		<path class="st1" d="M669.334,442.615c0,0-35.61,9.869-41.033,4.627c-134.289-71.718-263.356,0.771-263.356,0.771
			c-98.479-16.965-91.765-90.225-91.765-90.225c-2.238-104.106,98.479-96.395,98.479-96.395s12.42-130.325,131.1-130.407
			c118.081-0.081,130.018,130.407,130.018,130.407s91.267-6.426,99.225,87.141C732.002,348.534,741.452,395.831,669.334,442.615
			c0,0-0.01,0.06-0.03,0.178"/>
		<path class="st8" d="M448.649,417.129c-62.465,6.95-87.381,33.613-87.381,33.613c-101.106-16.851-94.213-89.617-94.213-89.617
			c-2.298-103.404,94.979-98.468,94.979-98.468s34.241-84.056,37.021-95.335c0,0,32.829,80.321,19.404,141.71
			C410.235,346.637,505.593,392.264,448.649,417.129z"/>
		<path class="st3" d="M664.587,441.905c-14.889,4.847-41.397,4.509-41.397,4.509c-141.757-68.746-265.7,0.753-265.7,0.753
			c-14.302-2.384-24.535-5.141-34.776-9.424l10.69,41.037l30.986,122.076c3.805,23.946,137.617,23.946,137.617,23.946
			c34.586-0.578,114.66-9.032,125.95-21.828C639.202,590.229,664.385,443.083,664.587,441.905z"/>
		<path class="st4" d="M317.972,438.791l47.087,161.535c2.377,14.163,44.128,20.092,85.494,22.689c0,0,0.861-13.873-39.752-54.331
			c-13.538-13.486-14.122-53.621-16.34-65.872C385.316,452.328,325.312,428.24,317.972,438.791z"/>
		<path class="st5" d="M330.629,478.045l31.532,124.228c3.872,24.368,140.043,24.368,140.043,24.368
			c35.196-0.588,116.681-9.192,128.17-22.213c11.489-13.021,37.277-163.915,37.277-163.915c74.043-46.468,64.34-93.447,64.34-93.447
			c-8.17-92.936-101.872-86.553-101.872-86.553s-12.255-129.609-133.487-129.528c-121.847,0.081-134.598,129.528-134.598,129.528
			s-103.404-7.66-101.106,95.745c0,0-6.894,72.766,94.213,89.617c0,0,132.511-72,270.383-0.766"/>
		<path class="st6" d="M516.246,180.343c0,0-20.936-7.404-45.191,0"/>
		<path class="st6" d="M551.989,194.639c-3.862-1.822,41.579,21.482,39.587,69.447"/>
		<line class="st7" x1="414.068" y1="475.492" x2="441.322" y2="577.875"/>
		<line class="st7" x1="496.619" y1="475.492" x2="496.619" y2="577.875"/>
		<line class="st7" x1="576.68" y1="475.492" x2="547.217" y2="577.875"/>
	</g>
	<g>
		<polygon class="st9" points="603.243,372.391 624.927,336.192 597.521,301.522 558.9,316.88 562.379,361.569 		"/>
		<polyline class="st10" points="621.134,382.321 612.654,396.057 603.243,372.391 624.927,336.192 649.939,335.663 
			625.431,375.361 		"/>
		<polygon class="st9" points="597.521,301.522 604.008,278.933 649.939,335.663 624.927,336.192 		"/>
		<polyline class="st10" points="558.327,297.098 604.008,278.933 597.521,301.522 558.9,316.88 538.818,304.856 543.977,302.804 		
			"/>
		<polygon class="st10" points="562.379,361.569 544.531,377.578 538.818,304.856 558.9,316.88 		"/>
		<polygon class="st9" points="612.654,396.057 544.531,377.578 562.379,361.569 603.243,372.391 		"/>
		<line class="st11" x1="605.135" y1="353.367" x2="610.665" y2="343.994"/>
		<line class="st11" x1="596.976" y1="356.544" x2="606.771" y2="339.556"/>
	</g>
	<g>
		<polygon class="st12" points="414.734,278.766 430.157,261.745 452.871,266.698 468.533,316.193 452.958,333.798 430.243,327.775 
					"/>
		<polygon class="st13" points="387.325,272.264 421.684,234.969 430.157,261.745 414.734,278.766 		"/>
		<polyline class="st13" points="393.353,291.313 411.565,348.861 430.243,327.775 414.734,278.766 387.325,272.264 
			390.433,282.083 		"/>
		<polyline class="st12" points="449.041,356.692 461.174,359.228 452.958,333.798 430.243,327.775 411.565,348.861 
			439.357,354.669 		"/>
		<polygon class="st13" points="461.174,359.228 495.302,322.362 468.533,316.193 452.958,333.798 		"/>
		<path class="st14" d="M471.063,245.766l24.239,76.597L471.063,245.766z"/>
		<polyline class="st12" points="423.923,235.459 421.684,234.969 430.157,261.745 452.871,266.698 471.063,245.766 
			423.923,235.459 		"/>
		<polygon class="st13" points="471.063,245.766 452.871,266.698 468.533,316.193 495.302,322.362 		"/>
		<line class="st15" x1="433.715" y1="270.336" x2="446.255" y2="272.67"/>
		<line class="st15" x1="437.667" y1="276.141" x2="441.325" y2="276.766"/>
	</g>
	<g>
		<path class="st16" d="M373.012,350.215c-0.013-0.288-1.977-0.458-5.099-0.497c-5.331-0.066-9.766-4.115-10.316-9.419
			c-0.322-3.106-0.67-5.046-0.958-5.033c-0.288,0.013-0.458,1.977-0.497,5.099c-0.066,5.331-4.115,9.766-9.419,10.316
			c-3.106,0.322-5.046,0.67-5.033,0.958c0.013,0.288,1.977,0.458,5.099,0.497c5.331,0.066,9.766,4.115,10.316,9.419
			c0.322,3.106,0.67,5.046,0.958,5.033c0.288-0.013,0.458-1.977,0.497-5.099c0.066-5.331,4.115-9.766,9.419-10.316
			C371.085,350.851,373.025,350.503,373.012,350.215z"/>
		<path class="st16" d="M521.489,236.516c0.033-0.238-1.549-0.677-4.099-1.185c-4.355-0.867-7.369-4.859-7.011-9.285
			c0.21-2.592,0.221-4.234-0.017-4.267c-0.238-0.033-0.677,1.549-1.185,4.099c-0.867,4.355-4.859,7.369-9.285,7.011
			c-2.592-0.21-4.234-0.221-4.267,0.017c-0.033,0.238,1.549,0.677,4.099,1.185c4.355,0.867,7.369,4.859,7.011,9.285
			c-0.21,2.592-0.221,4.234,0.017,4.267s0.677-1.549,1.185-4.099c0.867-4.355,4.859-7.369,9.285-7.011
			C519.814,236.743,521.456,236.754,521.489,236.516z"/>
		<path class="st16" d="M535.05,367.01c-0.165-0.219-1.799,0.705-4.272,2.357c-4.222,2.82-9.886,2.029-13.175-1.839
			c-1.926-2.266-3.244-3.602-3.463-3.436s0.705,1.799,2.357,4.272c2.82,4.222,2.029,9.886-1.839,13.175
			c-2.266,1.926-3.602,3.244-3.436,3.463s1.799-0.705,4.272-2.357c4.222-2.82,9.886-2.029,13.175,1.839
			c1.926,2.266,3.244,3.602,3.463,3.436s-0.705-1.799-2.357-4.272c-2.82-4.222-2.029-9.886,1.839-13.175
			C533.879,368.547,535.215,367.229,535.05,367.01z"/>
		<path class="st16" d="M674.598,313.945c0.117-0.248-1.461-1.265-4.073-2.685c-4.46-2.426-6.395-7.807-4.5-12.518
			c1.11-2.759,1.679-4.547,1.431-4.664s-1.265,1.461-2.686,4.073c-2.426,4.46-7.807,6.395-12.518,4.501
			c-2.759-1.11-4.547-1.679-4.664-1.431c-0.117,0.248,1.461,1.265,4.073,2.685c4.46,2.426,6.395,7.807,4.501,12.518
			c-1.11,2.759-1.679,4.547-1.431,4.664c0.248,0.117,1.265-1.461,2.685-4.073c2.426-4.46,7.807-6.395,12.518-4.501
			C672.693,313.624,674.481,314.193,674.598,313.945z"/>
		<path class="st16" d="M608.868,308.291c-0.051-0.121-0.917,0.115-2.258,0.589c-2.29,0.81-4.823-0.224-5.892-2.405
			c-0.626-1.277-1.08-2.052-1.201-2.001s0.115,0.917,0.589,2.258c0.81,2.29-0.224,4.823-2.405,5.892
			c-1.277,0.626-2.052,1.08-2.001,1.201s0.917-0.115,2.258-0.589c2.29-0.81,4.823,0.224,5.892,2.405
			c0.626,1.277,1.08,2.052,1.201,2.001c0.121-0.051-0.115-0.917-0.589-2.258c-0.81-2.29,0.224-4.823,2.405-5.892
			C608.144,308.866,608.919,308.412,608.868,308.291z"/>
		<path class="st16" d="M439.697,320.073c0.006-0.144-0.962-0.315-2.512-0.471c-2.646-0.267-4.671-2.474-4.711-5.133
			c-0.023-1.557-0.111-2.537-0.255-2.543c-0.144-0.006-0.315,0.962-0.471,2.512c-0.267,2.646-2.474,4.671-5.133,4.711
			c-1.557,0.023-2.537,0.111-2.543,0.255c-0.006,0.144,0.962,0.315,2.512,0.471c2.646,0.267,4.671,2.474,4.711,5.133
			c0.024,1.557,0.111,2.537,0.255,2.543c0.144,0.006,0.315-0.962,0.471-2.512c0.267-2.646,2.474-4.671,5.133-4.711
			C438.711,320.304,439.69,320.217,439.697,320.073z"/>
	</g>
</g>
</svg>
