<?xml version="1.0" encoding="utf-8"?>
<!-- Generator: Adobe Illustrator 23.0.1, SVG Export Plug-In . SVG Version: 6.00 Build 0)  -->
<svg version="1.1" id="Шар_3" xmlns="http://www.w3.org/2000/svg" xmlns:xlink="http://www.w3.org/1999/xlink" x="0px" y="0px"
	 viewBox="0 0 892.9 708.7" style="enable-background:new 0 0 892.9 708.7;" xml:space="preserve">
<style type="text/css">
	.st0{fill:#A5BCCE;}
	.st1{display:none;fill:#FFFFFF;}
	.st2{fill:none;stroke:#FFFFFF;stroke-miterlimit:10;}
	.st3{fill:none;stroke:#FFFFFF;stroke-width:13;stroke-linecap:round;stroke-linejoin:round;stroke-miterlimit:10;}
	.st4{fill:none;stroke:#FFFFFF;stroke-width:14;stroke-linecap:round;stroke-miterlimit:10;}
	.st5{fill:none;stroke:#FFFFFF;stroke-width:6;stroke-linecap:round;stroke-linejoin:round;stroke-miterlimit:10;}
	.st6{fill:none;stroke:#FFFFFF;stroke-width:4;stroke-linecap:round;stroke-linejoin:round;stroke-miterlimit:10;}
	.st7{display:none;}
	.st8{display:inline;}
	.st9{fill:#BAD7F2;}
	.st10{fill:#DAE5F2;}
	.st11{fill:#BAC4CE;}
	.st12{display:inline;fill:#BCE5F2;}
	.st13{display:inline;fill:#C8E5F2;}
	.st14{display:inline;fill:#AEC4CE;}
</style>
<g id="Шар_1">
</g>
<path class="st0" d="M-339.4-280.9"/>
<path class="st1" d="M-79.3,299.9c0-1.6-10.6-3-27.5-3.9c-28.9-1.7-51.9-24.7-53.6-53.6c-1-16.9-2.4-27.5-3.9-27.5s-3,10.6-3.9,27.5
	c-1.7,28.9-24.7,51.9-53.6,53.6c-16.9,1-27.5,2.4-27.5,3.9c0,1.6,10.6,3,27.5,3.9c28.9,1.7,51.9,24.7,53.6,53.6
	c1,16.9,2.4,27.5,3.9,27.5s3-10.6,3.9-27.5c1.7-28.9,24.7-51.9,53.6-53.6C-89.9,302.9-79.3,301.5-79.3,299.9z"/>
<g>
	<path class="st2" d="M268.3,388c-0.3,0.1-0.5,0.3-0.8,0.4"/>
	<path class="st3" d="M494.9,128.7c-19.8-25.4-51-46.7-100.2-46.7c-121.8,0.1-134.6,129.5-134.6,129.5s-103.4-7.7-101.1,95.7
		c0,0-6.9,72.8,94.2,89.6c0,0,4.6-2.5,13-6.1"/>
	<path class="st3" d="M228.7,429.1l31.5,124.2c2.4,14.8,53.7,20.6,93.6,22.9"/>
	<path class="st4" d="M445.3,528.9"/>
	<path class="st4" d="M474.7,426.5"/>
</g>
<g>
	<g>
		<path class="st3" d="M330.6,478l31.5,124.2c3.9,24.4,140,24.4,140,24.4c35.2-0.6,116.7-9.2,128.2-22.2s37.3-163.9,37.3-163.9
			c74-46.5,64.3-93.4,64.3-93.4c-8.2-92.9-101.9-86.6-101.9-86.6S617.9,130.9,496.6,131C374.8,131.1,362,260.5,362,260.5
			s-103.4-7.7-101.1,95.7c0,0-6.9,72.8,94.2,89.6c0,0,132.5-72,270.4-0.8"/>
		<line class="st4" x1="414.1" y1="475.5" x2="441.3" y2="577.9"/>
		<line class="st4" x1="496.6" y1="475.5" x2="496.6" y2="577.9"/>
		<line class="st4" x1="576.7" y1="475.5" x2="547.2" y2="577.9"/>
	</g>
	<g>
		<polygon class="st5" points="603.2,372.4 624.9,336.2 597.5,301.5 558.9,316.9 562.4,361.6 		"/>
		<polyline class="st5" points="621.1,382.3 612.7,396.1 603.2,372.4 624.9,336.2 649.9,335.7 625.4,375.4 		"/>
		<polygon class="st5" points="597.5,301.5 604,278.9 649.9,335.7 624.9,336.2 		"/>
		<polyline class="st5" points="558.3,297.1 604,278.9 597.5,301.5 558.9,316.9 538.8,304.9 544,302.8 		"/>
		<path class="st5" d="M558.3,297.1"/>
		<path class="st5" d="M544,302.8"/>
		<polygon class="st5" points="562.4,361.6 544.5,377.6 538.8,304.9 558.9,316.9 		"/>
		<polygon class="st5" points="612.7,396.1 544.5,377.6 562.4,361.6 603.2,372.4 		"/>
		<line class="st6" x1="605.1" y1="353.4" x2="610.7" y2="344"/>
		<line class="st6" x1="597" y1="356.5" x2="606.8" y2="339.6"/>
	</g>
	<g>
		<polygon class="st5" points="414.7,278.8 430.2,261.7 452.9,266.7 468.5,316.2 453,333.8 430.2,327.8 		"/>
		<polygon class="st5" points="387.3,272.3 421.7,235 430.2,261.7 414.7,278.8 		"/>
		<polyline class="st5" points="393.4,291.3 411.6,348.9 430.2,327.8 414.7,278.8 387.3,272.3 390.4,282.1 		"/>
		<path class="st5" d="M393.4,291.3"/>
		<path class="st5" d="M390.4,282.1"/>
		<polyline class="st5" points="449,356.7 461.2,359.2 453,333.8 430.2,327.8 411.6,348.9 439.4,354.7 		"/>
		<path class="st5" d="M449,356.7"/>
		<path class="st5" d="M439.4,354.7"/>
		<polygon class="st5" points="461.2,359.2 495.3,322.4 468.5,316.2 453,333.8 		"/>
		<path class="st5" d="M471.1,245.8l24.2,76.6L471.1,245.8z"/>
		<polyline class="st5" points="423.9,235.5 421.7,235 430.2,261.7 452.9,266.7 471.1,245.8 423.9,235.5 		"/>
		<polygon class="st5" points="471.1,245.8 452.9,266.7 468.5,316.2 495.3,322.4 		"/>
		<line class="st6" x1="433.7" y1="270.3" x2="446.3" y2="272.7"/>
		<line class="st6" x1="437.7" y1="276.1" x2="441.3" y2="276.8"/>
	</g>
</g>
<g class="st7">
	<g class="st8">
		<rect x="-493.4" y="335.2" class="st9" width="226.7" height="102.6"/>
		<rect x="-493.4" y="335.2" class="st9" width="226.7" height="102.6"/>
		<rect x="-493.4" y="458.4" class="st10" width="226.7" height="102.6"/>
		<rect x="-493.4" y="581.6" class="st11" width="226.7" height="102.6"/>
		<rect x="-493.4" y="335.2" class="st0" width="226.7" height="102.6"/>
		<rect x="-493.4" y="196.1" class="st9" width="226.7" height="102.6"/>
	</g>
	<rect x="-249.8" y="213.3" class="st12" width="157.8" height="81.2"/>
	<rect x="-249.8" y="460.7" class="st12" width="157.8" height="81.2"/>
	<rect x="-249.8" y="460.7" class="st13" width="157.8" height="81.2"/>
	<rect x="-249.8" y="337" class="st14" width="157.8" height="81.2"/>
	<rect x="-249.8" y="574" class="st14" width="157.8" height="81.2"/>
</g>
<path class="st4" d="M423.4,115.7c0,0-20.9-7.4-45.2,0"/>
<path class="st4" d="M519.2,162.1c0,0-20.9-7.4-45.2,0"/>
<path class="st4" d="M551.7,176.4c-3.9-1.8,41.6,21.5,39.6,69.4"/>
</svg>
